<mxfile host="Electron" agent="Mozilla/5.0 (Windows NT 10.0; Win64; x64) AppleWebKit/537.36 (KHTML, like Gecko) draw.io/24.7.17 Chrome/128.0.6613.36 Electron/32.0.1 Safari/537.36" version="24.7.17">
  <diagram name="Page-1" id="NKCCVY-D6DWxuKFGej02">
    <mxGraphModel dx="1050" dy="621" grid="1" gridSize="10" guides="1" tooltips="1" connect="1" arrows="1" fold="1" page="1" pageScale="1" pageWidth="827" pageHeight="1169" math="0" shadow="0">
      <root>
        <mxCell id="0" />
        <mxCell id="1" parent="0" />
        <mxCell id="kvpyFoiQvOs-y7EJ9BPA-79" style="edgeStyle=orthogonalEdgeStyle;rounded=0;orthogonalLoop=1;jettySize=auto;html=1;exitX=0.5;exitY=1;exitDx=0;exitDy=0;entryX=0.5;entryY=0;entryDx=0;entryDy=0;" parent="1" source="kvpyFoiQvOs-y7EJ9BPA-2" target="kvpyFoiQvOs-y7EJ9BPA-78" edge="1">
          <mxGeometry relative="1" as="geometry" />
        </mxCell>
        <mxCell id="kvpyFoiQvOs-y7EJ9BPA-92" value="" style="edgeStyle=orthogonalEdgeStyle;rounded=0;orthogonalLoop=1;jettySize=auto;html=1;exitX=0.5;exitY=1;exitDx=0;exitDy=0;" parent="1" source="kvpyFoiQvOs-y7EJ9BPA-91" target="kvpyFoiQvOs-y7EJ9BPA-2" edge="1">
          <mxGeometry relative="1" as="geometry">
            <Array as="points">
              <mxPoint x="420" y="320" />
              <mxPoint x="270" y="320" />
            </Array>
          </mxGeometry>
        </mxCell>
        <mxCell id="kvpyFoiQvOs-y7EJ9BPA-108" value="" style="edgeStyle=orthogonalEdgeStyle;rounded=0;orthogonalLoop=1;jettySize=auto;html=1;" parent="1" source="kvpyFoiQvOs-y7EJ9BPA-2" target="kvpyFoiQvOs-y7EJ9BPA-107" edge="1">
          <mxGeometry relative="1" as="geometry" />
        </mxCell>
        <mxCell id="kvpyFoiQvOs-y7EJ9BPA-2" value="user" style="rounded=0;whiteSpace=wrap;html=1;" parent="1" vertex="1">
          <mxGeometry x="210" y="360" width="120" height="60" as="geometry" />
        </mxCell>
        <mxCell id="kvpyFoiQvOs-y7EJ9BPA-4" value="id" style="ellipse;whiteSpace=wrap;html=1;" parent="1" vertex="1">
          <mxGeometry x="40" y="250" width="75" height="30" as="geometry" />
        </mxCell>
        <mxCell id="kvpyFoiQvOs-y7EJ9BPA-5" value="name" style="ellipse;whiteSpace=wrap;html=1;" parent="1" vertex="1">
          <mxGeometry x="40" y="290" width="75" height="30" as="geometry" />
        </mxCell>
        <mxCell id="kvpyFoiQvOs-y7EJ9BPA-6" value="email&amp;nbsp;" style="ellipse;whiteSpace=wrap;html=1;" parent="1" vertex="1">
          <mxGeometry x="40" y="330" width="75" height="30" as="geometry" />
        </mxCell>
        <mxCell id="kvpyFoiQvOs-y7EJ9BPA-7" value="password" style="ellipse;whiteSpace=wrap;html=1;" parent="1" vertex="1">
          <mxGeometry x="40" y="370" width="75" height="30" as="geometry" />
        </mxCell>
        <mxCell id="kvpyFoiQvOs-y7EJ9BPA-8" value="mobile" style="ellipse;whiteSpace=wrap;html=1;" parent="1" vertex="1">
          <mxGeometry x="40" y="410" width="75" height="30" as="geometry" />
        </mxCell>
        <mxCell id="kvpyFoiQvOs-y7EJ9BPA-9" value="profile_pic" style="ellipse;whiteSpace=wrap;html=1;" parent="1" vertex="1">
          <mxGeometry x="40" y="450" width="75" height="30" as="geometry" />
        </mxCell>
        <mxCell id="kvpyFoiQvOs-y7EJ9BPA-10" value="isVerified" style="ellipse;whiteSpace=wrap;html=1;" parent="1" vertex="1">
          <mxGeometry x="40" y="490" width="75" height="30" as="geometry" />
        </mxCell>
        <mxCell id="kvpyFoiQvOs-y7EJ9BPA-11" value="otp" style="ellipse;whiteSpace=wrap;html=1;" parent="1" vertex="1">
          <mxGeometry x="40" y="530" width="75" height="30" as="geometry" />
        </mxCell>
        <mxCell id="kvpyFoiQvOs-y7EJ9BPA-12" value="" style="endArrow=none;html=1;rounded=0;entryX=1;entryY=0.5;entryDx=0;entryDy=0;exitX=0;exitY=0.5;exitDx=0;exitDy=0;" parent="1" source="kvpyFoiQvOs-y7EJ9BPA-2" target="kvpyFoiQvOs-y7EJ9BPA-4" edge="1">
          <mxGeometry width="50" height="50" relative="1" as="geometry">
            <mxPoint x="420" y="190" as="sourcePoint" />
            <mxPoint x="470" y="140" as="targetPoint" />
          </mxGeometry>
        </mxCell>
        <mxCell id="kvpyFoiQvOs-y7EJ9BPA-13" value="" style="endArrow=none;html=1;rounded=0;entryX=1;entryY=0.5;entryDx=0;entryDy=0;exitX=0;exitY=0.5;exitDx=0;exitDy=0;" parent="1" source="kvpyFoiQvOs-y7EJ9BPA-2" target="kvpyFoiQvOs-y7EJ9BPA-5" edge="1">
          <mxGeometry width="50" height="50" relative="1" as="geometry">
            <mxPoint x="250" y="190" as="sourcePoint" />
            <mxPoint x="125" y="85" as="targetPoint" />
          </mxGeometry>
        </mxCell>
        <mxCell id="kvpyFoiQvOs-y7EJ9BPA-14" value="" style="endArrow=none;html=1;rounded=0;entryX=1;entryY=0.5;entryDx=0;entryDy=0;exitX=0;exitY=0.5;exitDx=0;exitDy=0;" parent="1" source="kvpyFoiQvOs-y7EJ9BPA-2" target="kvpyFoiQvOs-y7EJ9BPA-6" edge="1">
          <mxGeometry width="50" height="50" relative="1" as="geometry">
            <mxPoint x="190" y="220" as="sourcePoint" />
            <mxPoint x="125" y="125" as="targetPoint" />
          </mxGeometry>
        </mxCell>
        <mxCell id="kvpyFoiQvOs-y7EJ9BPA-15" value="" style="endArrow=none;html=1;rounded=0;entryX=1;entryY=0.5;entryDx=0;entryDy=0;exitX=0;exitY=0.5;exitDx=0;exitDy=0;" parent="1" source="kvpyFoiQvOs-y7EJ9BPA-2" target="kvpyFoiQvOs-y7EJ9BPA-8" edge="1">
          <mxGeometry width="50" height="50" relative="1" as="geometry">
            <mxPoint x="290" y="190" as="sourcePoint" />
            <mxPoint x="125" y="165" as="targetPoint" />
          </mxGeometry>
        </mxCell>
        <mxCell id="kvpyFoiQvOs-y7EJ9BPA-16" value="" style="endArrow=none;html=1;rounded=0;entryX=1;entryY=0.5;entryDx=0;entryDy=0;exitX=0;exitY=0.5;exitDx=0;exitDy=0;" parent="1" source="kvpyFoiQvOs-y7EJ9BPA-2" target="kvpyFoiQvOs-y7EJ9BPA-7" edge="1">
          <mxGeometry width="50" height="50" relative="1" as="geometry">
            <mxPoint x="300" y="200" as="sourcePoint" />
            <mxPoint x="135" y="175" as="targetPoint" />
          </mxGeometry>
        </mxCell>
        <mxCell id="kvpyFoiQvOs-y7EJ9BPA-17" value="" style="endArrow=none;html=1;rounded=0;entryX=1;entryY=0.5;entryDx=0;entryDy=0;exitX=0;exitY=0.5;exitDx=0;exitDy=0;" parent="1" source="kvpyFoiQvOs-y7EJ9BPA-2" target="kvpyFoiQvOs-y7EJ9BPA-10" edge="1">
          <mxGeometry width="50" height="50" relative="1" as="geometry">
            <mxPoint x="310" y="210" as="sourcePoint" />
            <mxPoint x="145" y="185" as="targetPoint" />
          </mxGeometry>
        </mxCell>
        <mxCell id="kvpyFoiQvOs-y7EJ9BPA-18" value="" style="endArrow=none;html=1;rounded=0;entryX=1;entryY=0.5;entryDx=0;entryDy=0;exitX=0;exitY=0.5;exitDx=0;exitDy=0;" parent="1" source="kvpyFoiQvOs-y7EJ9BPA-2" target="kvpyFoiQvOs-y7EJ9BPA-11" edge="1">
          <mxGeometry width="50" height="50" relative="1" as="geometry">
            <mxPoint x="320" y="220" as="sourcePoint" />
            <mxPoint x="155" y="195" as="targetPoint" />
          </mxGeometry>
        </mxCell>
        <mxCell id="kvpyFoiQvOs-y7EJ9BPA-19" value="" style="endArrow=none;html=1;rounded=0;entryX=1;entryY=0.5;entryDx=0;entryDy=0;exitX=0;exitY=0.5;exitDx=0;exitDy=0;" parent="1" source="kvpyFoiQvOs-y7EJ9BPA-2" target="kvpyFoiQvOs-y7EJ9BPA-9" edge="1">
          <mxGeometry width="50" height="50" relative="1" as="geometry">
            <mxPoint x="290" y="190" as="sourcePoint" />
            <mxPoint x="125" y="245" as="targetPoint" />
          </mxGeometry>
        </mxCell>
        <mxCell id="kvpyFoiQvOs-y7EJ9BPA-36" value="booking" style="rounded=0;whiteSpace=wrap;html=1;" parent="1" vertex="1">
          <mxGeometry x="495" y="360" width="120" height="60" as="geometry" />
        </mxCell>
        <mxCell id="kvpyFoiQvOs-y7EJ9BPA-37" value="user_id" style="ellipse;whiteSpace=wrap;html=1;" parent="1" vertex="1">
          <mxGeometry x="720" y="255" width="75" height="30" as="geometry" />
        </mxCell>
        <mxCell id="kvpyFoiQvOs-y7EJ9BPA-38" value="ride_id" style="ellipse;whiteSpace=wrap;html=1;" parent="1" vertex="1">
          <mxGeometry x="720" y="295" width="75" height="30" as="geometry" />
        </mxCell>
        <mxCell id="kvpyFoiQvOs-y7EJ9BPA-39" value="seats" style="ellipse;whiteSpace=wrap;html=1;" parent="1" vertex="1">
          <mxGeometry x="720" y="335" width="75" height="30" as="geometry" />
        </mxCell>
        <mxCell id="kvpyFoiQvOs-y7EJ9BPA-40" value="date" style="ellipse;whiteSpace=wrap;html=1;" parent="1" vertex="1">
          <mxGeometry x="720" y="375" width="75" height="30" as="geometry" />
        </mxCell>
        <mxCell id="kvpyFoiQvOs-y7EJ9BPA-41" value="confirmation&amp;nbsp;" style="ellipse;whiteSpace=wrap;html=1;" parent="1" vertex="1">
          <mxGeometry x="720" y="415" width="75" height="30" as="geometry" />
        </mxCell>
        <mxCell id="kvpyFoiQvOs-y7EJ9BPA-42" value="price" style="ellipse;whiteSpace=wrap;html=1;" parent="1" vertex="1">
          <mxGeometry x="720" y="455" width="75" height="30" as="geometry" />
        </mxCell>
        <mxCell id="kvpyFoiQvOs-y7EJ9BPA-43" value="isVerified" style="ellipse;whiteSpace=wrap;html=1;" parent="1" vertex="1">
          <mxGeometry x="720" y="495" width="75" height="30" as="geometry" />
        </mxCell>
        <mxCell id="kvpyFoiQvOs-y7EJ9BPA-44" value="otp" style="ellipse;whiteSpace=wrap;html=1;" parent="1" vertex="1">
          <mxGeometry x="720" y="535" width="75" height="30" as="geometry" />
        </mxCell>
        <mxCell id="kvpyFoiQvOs-y7EJ9BPA-45" value="" style="endArrow=none;html=1;rounded=0;entryX=0;entryY=0.5;entryDx=0;entryDy=0;exitX=1;exitY=0.5;exitDx=0;exitDy=0;" parent="1" source="kvpyFoiQvOs-y7EJ9BPA-36" target="kvpyFoiQvOs-y7EJ9BPA-37" edge="1">
          <mxGeometry width="50" height="50" relative="1" as="geometry">
            <mxPoint x="845" y="460" as="sourcePoint" />
            <mxPoint x="895" y="245" as="targetPoint" />
          </mxGeometry>
        </mxCell>
        <mxCell id="kvpyFoiQvOs-y7EJ9BPA-46" value="" style="endArrow=none;html=1;rounded=0;entryX=0;entryY=0.5;entryDx=0;entryDy=0;exitX=1;exitY=0.5;exitDx=0;exitDy=0;" parent="1" source="kvpyFoiQvOs-y7EJ9BPA-36" target="kvpyFoiQvOs-y7EJ9BPA-38" edge="1">
          <mxGeometry width="50" height="50" relative="1" as="geometry">
            <mxPoint x="845" y="460" as="sourcePoint" />
            <mxPoint x="550" y="190" as="targetPoint" />
          </mxGeometry>
        </mxCell>
        <mxCell id="kvpyFoiQvOs-y7EJ9BPA-47" value="" style="endArrow=none;html=1;rounded=0;entryX=0;entryY=0.5;entryDx=0;entryDy=0;exitX=1;exitY=0.5;exitDx=0;exitDy=0;" parent="1" source="kvpyFoiQvOs-y7EJ9BPA-36" target="kvpyFoiQvOs-y7EJ9BPA-39" edge="1">
          <mxGeometry width="50" height="50" relative="1" as="geometry">
            <mxPoint x="615" y="325" as="sourcePoint" />
            <mxPoint x="550" y="230" as="targetPoint" />
          </mxGeometry>
        </mxCell>
        <mxCell id="kvpyFoiQvOs-y7EJ9BPA-48" value="" style="endArrow=none;html=1;rounded=0;entryX=0;entryY=0.5;entryDx=0;entryDy=0;exitX=1;exitY=0.5;exitDx=0;exitDy=0;" parent="1" source="kvpyFoiQvOs-y7EJ9BPA-36" target="kvpyFoiQvOs-y7EJ9BPA-41" edge="1">
          <mxGeometry width="50" height="50" relative="1" as="geometry">
            <mxPoint x="845" y="460" as="sourcePoint" />
            <mxPoint x="455" y="345" as="targetPoint" />
          </mxGeometry>
        </mxCell>
        <mxCell id="kvpyFoiQvOs-y7EJ9BPA-49" value="" style="endArrow=none;html=1;rounded=0;entryX=0;entryY=0.5;entryDx=0;entryDy=0;exitX=1;exitY=0.5;exitDx=0;exitDy=0;" parent="1" source="kvpyFoiQvOs-y7EJ9BPA-36" target="kvpyFoiQvOs-y7EJ9BPA-40" edge="1">
          <mxGeometry width="50" height="50" relative="1" as="geometry">
            <mxPoint x="725" y="305" as="sourcePoint" />
            <mxPoint x="560" y="280" as="targetPoint" />
          </mxGeometry>
        </mxCell>
        <mxCell id="kvpyFoiQvOs-y7EJ9BPA-50" value="" style="endArrow=none;html=1;rounded=0;entryX=0;entryY=0.5;entryDx=0;entryDy=0;exitX=1;exitY=0.5;exitDx=0;exitDy=0;" parent="1" source="kvpyFoiQvOs-y7EJ9BPA-36" target="kvpyFoiQvOs-y7EJ9BPA-43" edge="1">
          <mxGeometry width="50" height="50" relative="1" as="geometry">
            <mxPoint x="735" y="315" as="sourcePoint" />
            <mxPoint x="570" y="290" as="targetPoint" />
          </mxGeometry>
        </mxCell>
        <mxCell id="kvpyFoiQvOs-y7EJ9BPA-51" value="" style="endArrow=none;html=1;rounded=0;entryX=0;entryY=0.5;entryDx=0;entryDy=0;exitX=1;exitY=0.5;exitDx=0;exitDy=0;" parent="1" source="kvpyFoiQvOs-y7EJ9BPA-36" target="kvpyFoiQvOs-y7EJ9BPA-44" edge="1">
          <mxGeometry width="50" height="50" relative="1" as="geometry">
            <mxPoint x="745" y="325" as="sourcePoint" />
            <mxPoint x="580" y="300" as="targetPoint" />
          </mxGeometry>
        </mxCell>
        <mxCell id="kvpyFoiQvOs-y7EJ9BPA-52" value="" style="endArrow=none;html=1;rounded=0;entryX=0;entryY=0.5;entryDx=0;entryDy=0;exitX=1;exitY=0.5;exitDx=0;exitDy=0;" parent="1" source="kvpyFoiQvOs-y7EJ9BPA-36" target="kvpyFoiQvOs-y7EJ9BPA-42" edge="1">
          <mxGeometry width="50" height="50" relative="1" as="geometry">
            <mxPoint x="715" y="295" as="sourcePoint" />
            <mxPoint x="550" y="350" as="targetPoint" />
          </mxGeometry>
        </mxCell>
        <mxCell id="kvpyFoiQvOs-y7EJ9BPA-58" value="ride" style="rounded=0;whiteSpace=wrap;html=1;" parent="1" vertex="1">
          <mxGeometry x="353.5" y="640" width="120" height="60" as="geometry" />
        </mxCell>
        <mxCell id="kvpyFoiQvOs-y7EJ9BPA-59" value="id" style="ellipse;whiteSpace=wrap;html=1;" parent="1" vertex="1">
          <mxGeometry x="210" y="780" width="95" height="35" as="geometry" />
        </mxCell>
        <mxCell id="kvpyFoiQvOs-y7EJ9BPA-60" value="userID" style="ellipse;whiteSpace=wrap;html=1;" parent="1" vertex="1">
          <mxGeometry x="250" y="815" width="85" height="40" as="geometry" />
        </mxCell>
        <mxCell id="kvpyFoiQvOs-y7EJ9BPA-61" value="vechile_id" style="ellipse;whiteSpace=wrap;html=1;" parent="1" vertex="1">
          <mxGeometry x="275" y="860" width="95" height="40" as="geometry" />
        </mxCell>
        <mxCell id="kvpyFoiQvOs-y7EJ9BPA-62" value="destination" style="ellipse;whiteSpace=wrap;html=1;" parent="1" vertex="1">
          <mxGeometry x="353.5" y="900" width="90" height="40" as="geometry" />
        </mxCell>
        <mxCell id="kvpyFoiQvOs-y7EJ9BPA-63" value="departure_time" style="ellipse;whiteSpace=wrap;html=1;" parent="1" vertex="1">
          <mxGeometry x="420" y="940" width="100" height="40" as="geometry" />
        </mxCell>
        <mxCell id="kvpyFoiQvOs-y7EJ9BPA-64" value="peri_per_seat" style="ellipse;whiteSpace=wrap;html=1;" parent="1" vertex="1">
          <mxGeometry x="473.5" y="880" width="90" height="40" as="geometry" />
        </mxCell>
        <mxCell id="kvpyFoiQvOs-y7EJ9BPA-65" value="arrival_time" style="ellipse;whiteSpace=wrap;html=1;" parent="1" vertex="1">
          <mxGeometry x="520" y="840" width="100" height="40" as="geometry" />
        </mxCell>
        <mxCell id="kvpyFoiQvOs-y7EJ9BPA-66" value="available_seats" style="ellipse;whiteSpace=wrap;html=1;" parent="1" vertex="1">
          <mxGeometry x="545" y="800" width="100" height="40" as="geometry" />
        </mxCell>
        <mxCell id="kvpyFoiQvOs-y7EJ9BPA-67" value="" style="endArrow=none;html=1;rounded=0;entryX=1;entryY=0.5;entryDx=0;entryDy=0;exitX=0.5;exitY=1;exitDx=0;exitDy=0;" parent="1" source="kvpyFoiQvOs-y7EJ9BPA-58" target="kvpyFoiQvOs-y7EJ9BPA-59" edge="1">
          <mxGeometry width="50" height="50" relative="1" as="geometry">
            <mxPoint x="500" y="660" as="sourcePoint" />
            <mxPoint x="550" y="610" as="targetPoint" />
          </mxGeometry>
        </mxCell>
        <mxCell id="kvpyFoiQvOs-y7EJ9BPA-68" value="" style="endArrow=none;html=1;rounded=0;entryX=0.994;entryY=0.34;entryDx=0;entryDy=0;exitX=0.5;exitY=1;exitDx=0;exitDy=0;entryPerimeter=0;" parent="1" source="kvpyFoiQvOs-y7EJ9BPA-58" target="kvpyFoiQvOs-y7EJ9BPA-60" edge="1">
          <mxGeometry width="50" height="50" relative="1" as="geometry">
            <mxPoint x="330" y="660" as="sourcePoint" />
            <mxPoint x="205" y="555" as="targetPoint" />
          </mxGeometry>
        </mxCell>
        <mxCell id="kvpyFoiQvOs-y7EJ9BPA-69" value="" style="endArrow=none;html=1;rounded=0;entryX=1;entryY=0;entryDx=0;entryDy=0;exitX=0.5;exitY=1;exitDx=0;exitDy=0;" parent="1" source="kvpyFoiQvOs-y7EJ9BPA-58" target="kvpyFoiQvOs-y7EJ9BPA-61" edge="1">
          <mxGeometry width="50" height="50" relative="1" as="geometry">
            <mxPoint x="270" y="690" as="sourcePoint" />
            <mxPoint x="205" y="595" as="targetPoint" />
          </mxGeometry>
        </mxCell>
        <mxCell id="kvpyFoiQvOs-y7EJ9BPA-70" value="" style="endArrow=none;html=1;rounded=0;entryX=0.5;entryY=0;entryDx=0;entryDy=0;exitX=0.5;exitY=1;exitDx=0;exitDy=0;" parent="1" source="kvpyFoiQvOs-y7EJ9BPA-58" target="kvpyFoiQvOs-y7EJ9BPA-63" edge="1">
          <mxGeometry width="50" height="50" relative="1" as="geometry">
            <mxPoint x="370" y="660" as="sourcePoint" />
            <mxPoint x="205" y="635" as="targetPoint" />
          </mxGeometry>
        </mxCell>
        <mxCell id="kvpyFoiQvOs-y7EJ9BPA-71" value="" style="endArrow=none;html=1;rounded=0;entryX=0.5;entryY=0;entryDx=0;entryDy=0;exitX=0.5;exitY=1;exitDx=0;exitDy=0;" parent="1" source="kvpyFoiQvOs-y7EJ9BPA-58" target="kvpyFoiQvOs-y7EJ9BPA-62" edge="1">
          <mxGeometry width="50" height="50" relative="1" as="geometry">
            <mxPoint x="380" y="670" as="sourcePoint" />
            <mxPoint x="215" y="645" as="targetPoint" />
          </mxGeometry>
        </mxCell>
        <mxCell id="kvpyFoiQvOs-y7EJ9BPA-72" value="" style="endArrow=none;html=1;rounded=0;entryX=0.283;entryY=0.067;entryDx=0;entryDy=0;entryPerimeter=0;exitX=0.5;exitY=1;exitDx=0;exitDy=0;" parent="1" source="kvpyFoiQvOs-y7EJ9BPA-58" target="kvpyFoiQvOs-y7EJ9BPA-65" edge="1">
          <mxGeometry width="50" height="50" relative="1" as="geometry">
            <mxPoint x="530" y="650" as="sourcePoint" />
            <mxPoint x="225" y="655" as="targetPoint" />
          </mxGeometry>
        </mxCell>
        <mxCell id="kvpyFoiQvOs-y7EJ9BPA-73" value="" style="endArrow=none;html=1;rounded=0;entryX=0;entryY=0;entryDx=0;entryDy=0;exitX=0.5;exitY=1;exitDx=0;exitDy=0;" parent="1" source="kvpyFoiQvOs-y7EJ9BPA-58" target="kvpyFoiQvOs-y7EJ9BPA-66" edge="1">
          <mxGeometry width="50" height="50" relative="1" as="geometry">
            <mxPoint x="400" y="690" as="sourcePoint" />
            <mxPoint x="235" y="665" as="targetPoint" />
          </mxGeometry>
        </mxCell>
        <mxCell id="kvpyFoiQvOs-y7EJ9BPA-74" value="" style="endArrow=none;html=1;rounded=0;entryX=0.5;entryY=0;entryDx=0;entryDy=0;exitX=0.5;exitY=1;exitDx=0;exitDy=0;" parent="1" source="kvpyFoiQvOs-y7EJ9BPA-58" target="kvpyFoiQvOs-y7EJ9BPA-64" edge="1">
          <mxGeometry width="50" height="50" relative="1" as="geometry">
            <mxPoint x="370" y="660" as="sourcePoint" />
            <mxPoint x="205" y="715" as="targetPoint" />
          </mxGeometry>
        </mxCell>
        <mxCell id="kvpyFoiQvOs-y7EJ9BPA-80" style="edgeStyle=orthogonalEdgeStyle;rounded=0;orthogonalLoop=1;jettySize=auto;html=1;entryX=0.5;entryY=0;entryDx=0;entryDy=0;" parent="1" source="kvpyFoiQvOs-y7EJ9BPA-78" target="kvpyFoiQvOs-y7EJ9BPA-58" edge="1">
          <mxGeometry relative="1" as="geometry" />
        </mxCell>
        <mxCell id="kvpyFoiQvOs-y7EJ9BPA-78" value="User can&lt;div&gt;&amp;nbsp;create a ride&amp;nbsp;&lt;/div&gt;" style="rhombus;whiteSpace=wrap;html=1;" parent="1" vertex="1">
          <mxGeometry x="220" y="510" width="100" height="95" as="geometry" />
        </mxCell>
        <mxCell id="kvpyFoiQvOs-y7EJ9BPA-110" style="edgeStyle=orthogonalEdgeStyle;rounded=0;orthogonalLoop=1;jettySize=auto;html=1;exitX=0;exitY=0.5;exitDx=0;exitDy=0;entryX=1;entryY=0.5;entryDx=0;entryDy=0;" parent="1" source="kvpyFoiQvOs-y7EJ9BPA-81" target="kvpyFoiQvOs-y7EJ9BPA-91" edge="1">
          <mxGeometry relative="1" as="geometry" />
        </mxCell>
        <mxCell id="kvpyFoiQvOs-y7EJ9BPA-81" value="login" style="rounded=0;whiteSpace=wrap;html=1;" parent="1" vertex="1">
          <mxGeometry x="590" y="130" width="120" height="60" as="geometry" />
        </mxCell>
        <mxCell id="kvpyFoiQvOs-y7EJ9BPA-82" value="password" style="ellipse;whiteSpace=wrap;html=1;" parent="1" vertex="1">
          <mxGeometry x="580" y="40" width="75" height="30" as="geometry" />
        </mxCell>
        <mxCell id="kvpyFoiQvOs-y7EJ9BPA-83" value="" style="endArrow=none;html=1;rounded=0;entryX=0.5;entryY=1;entryDx=0;entryDy=0;exitX=0.5;exitY=0;exitDx=0;exitDy=0;" parent="1" source="kvpyFoiQvOs-y7EJ9BPA-81" target="kvpyFoiQvOs-y7EJ9BPA-82" edge="1">
          <mxGeometry width="50" height="50" relative="1" as="geometry">
            <mxPoint x="220" y="230" as="sourcePoint" />
            <mxPoint x="125" y="85" as="targetPoint" />
          </mxGeometry>
        </mxCell>
        <mxCell id="kvpyFoiQvOs-y7EJ9BPA-84" value="user_id" style="ellipse;whiteSpace=wrap;html=1;" parent="1" vertex="1">
          <mxGeometry x="660" y="20" width="75" height="30" as="geometry" />
        </mxCell>
        <mxCell id="kvpyFoiQvOs-y7EJ9BPA-85" value="email" style="ellipse;whiteSpace=wrap;html=1;" parent="1" vertex="1">
          <mxGeometry x="720" y="60" width="75" height="30" as="geometry" />
        </mxCell>
        <mxCell id="kvpyFoiQvOs-y7EJ9BPA-87" value="_id" style="ellipse;whiteSpace=wrap;html=1;" parent="1" vertex="1">
          <mxGeometry x="720" y="215" width="75" height="30" as="geometry" />
        </mxCell>
        <mxCell id="kvpyFoiQvOs-y7EJ9BPA-88" value="" style="endArrow=none;html=1;rounded=0;entryX=0;entryY=0.5;entryDx=0;entryDy=0;exitX=1;exitY=0.5;exitDx=0;exitDy=0;" parent="1" source="kvpyFoiQvOs-y7EJ9BPA-36" target="kvpyFoiQvOs-y7EJ9BPA-87" edge="1">
          <mxGeometry width="50" height="50" relative="1" as="geometry">
            <mxPoint x="625" y="315" as="sourcePoint" />
            <mxPoint x="725" y="180" as="targetPoint" />
          </mxGeometry>
        </mxCell>
        <mxCell id="kvpyFoiQvOs-y7EJ9BPA-89" value="" style="endArrow=none;html=1;rounded=0;entryX=0.5;entryY=1;entryDx=0;entryDy=0;exitX=0.5;exitY=0;exitDx=0;exitDy=0;" parent="1" source="kvpyFoiQvOs-y7EJ9BPA-81" target="kvpyFoiQvOs-y7EJ9BPA-84" edge="1">
          <mxGeometry width="50" height="50" relative="1" as="geometry">
            <mxPoint x="410" y="120" as="sourcePoint" />
            <mxPoint x="340" y="75" as="targetPoint" />
          </mxGeometry>
        </mxCell>
        <mxCell id="kvpyFoiQvOs-y7EJ9BPA-90" value="" style="endArrow=none;html=1;rounded=0;entryX=0;entryY=1;entryDx=0;entryDy=0;exitX=0.5;exitY=0;exitDx=0;exitDy=0;" parent="1" source="kvpyFoiQvOs-y7EJ9BPA-81" target="kvpyFoiQvOs-y7EJ9BPA-85" edge="1">
          <mxGeometry width="50" height="50" relative="1" as="geometry">
            <mxPoint x="424" y="135" as="sourcePoint" />
            <mxPoint x="401" y="70" as="targetPoint" />
          </mxGeometry>
        </mxCell>
        <mxCell id="kvpyFoiQvOs-y7EJ9BPA-91" value="user can Login" style="rhombus;whiteSpace=wrap;html=1;rounded=0;" parent="1" vertex="1">
          <mxGeometry x="380" y="120" width="80" height="80" as="geometry" />
        </mxCell>
        <mxCell id="kvpyFoiQvOs-y7EJ9BPA-104" style="edgeStyle=orthogonalEdgeStyle;rounded=0;orthogonalLoop=1;jettySize=auto;html=1;exitX=1;exitY=0.5;exitDx=0;exitDy=0;entryX=0.2;entryY=-0.027;entryDx=0;entryDy=0;entryPerimeter=0;" parent="1" source="kvpyFoiQvOs-y7EJ9BPA-97" target="kvpyFoiQvOs-y7EJ9BPA-2" edge="1">
          <mxGeometry relative="1" as="geometry" />
        </mxCell>
        <mxCell id="kvpyFoiQvOs-y7EJ9BPA-97" value="Registration" style="rounded=0;whiteSpace=wrap;html=1;" parent="1" vertex="1">
          <mxGeometry x="170" y="155" width="120" height="60" as="geometry" />
        </mxCell>
        <mxCell id="kvpyFoiQvOs-y7EJ9BPA-98" value="" style="endArrow=none;html=1;rounded=0;entryX=1;entryY=0.5;entryDx=0;entryDy=0;exitX=0.5;exitY=0;exitDx=0;exitDy=0;" parent="1" source="kvpyFoiQvOs-y7EJ9BPA-97" target="kvpyFoiQvOs-y7EJ9BPA-103" edge="1">
          <mxGeometry width="50" height="50" relative="1" as="geometry">
            <mxPoint x="-35" y="220" as="sourcePoint" />
            <mxPoint x="128" y="50" as="targetPoint" />
          </mxGeometry>
        </mxCell>
        <mxCell id="kvpyFoiQvOs-y7EJ9BPA-99" value="email&amp;nbsp;" style="ellipse;whiteSpace=wrap;html=1;" parent="1" vertex="1">
          <mxGeometry x="60" y="80" width="75" height="30" as="geometry" />
        </mxCell>
        <mxCell id="kvpyFoiQvOs-y7EJ9BPA-100" value="password" style="ellipse;whiteSpace=wrap;html=1;" parent="1" vertex="1">
          <mxGeometry x="232.5" y="70" width="75" height="30" as="geometry" />
        </mxCell>
        <mxCell id="kvpyFoiQvOs-y7EJ9BPA-101" value="" style="endArrow=none;html=1;rounded=0;entryX=1;entryY=0.5;entryDx=0;entryDy=0;exitX=0.5;exitY=0;exitDx=0;exitDy=0;" parent="1" source="kvpyFoiQvOs-y7EJ9BPA-97" target="kvpyFoiQvOs-y7EJ9BPA-99" edge="1">
          <mxGeometry width="50" height="50" relative="1" as="geometry">
            <mxPoint x="155" y="110" as="sourcePoint" />
            <mxPoint x="85" y="65" as="targetPoint" />
          </mxGeometry>
        </mxCell>
        <mxCell id="kvpyFoiQvOs-y7EJ9BPA-102" value="" style="endArrow=none;html=1;rounded=0;entryX=0.5;entryY=1;entryDx=0;entryDy=0;exitX=0.5;exitY=0;exitDx=0;exitDy=0;" parent="1" source="kvpyFoiQvOs-y7EJ9BPA-97" target="kvpyFoiQvOs-y7EJ9BPA-100" edge="1">
          <mxGeometry width="50" height="50" relative="1" as="geometry">
            <mxPoint x="169" y="125" as="sourcePoint" />
            <mxPoint x="146" y="60" as="targetPoint" />
          </mxGeometry>
        </mxCell>
        <mxCell id="kvpyFoiQvOs-y7EJ9BPA-103" value="name" style="ellipse;whiteSpace=wrap;html=1;" parent="1" vertex="1">
          <mxGeometry x="40" y="125" width="75" height="30" as="geometry" />
        </mxCell>
        <mxCell id="kvpyFoiQvOs-y7EJ9BPA-105" value="mobile" style="ellipse;whiteSpace=wrap;html=1;" parent="1" vertex="1">
          <mxGeometry x="145" y="60" width="75" height="30" as="geometry" />
        </mxCell>
        <mxCell id="kvpyFoiQvOs-y7EJ9BPA-106" value="" style="endArrow=none;html=1;rounded=0;entryX=0.5;entryY=1;entryDx=0;entryDy=0;exitX=0.5;exitY=0;exitDx=0;exitDy=0;" parent="1" source="kvpyFoiQvOs-y7EJ9BPA-97" target="kvpyFoiQvOs-y7EJ9BPA-105" edge="1">
          <mxGeometry width="50" height="50" relative="1" as="geometry">
            <mxPoint x="140" y="145" as="sourcePoint" />
            <mxPoint x="266" y="106" as="targetPoint" />
          </mxGeometry>
        </mxCell>
        <mxCell id="kvpyFoiQvOs-y7EJ9BPA-109" style="edgeStyle=orthogonalEdgeStyle;rounded=0;orthogonalLoop=1;jettySize=auto;html=1;exitX=1;exitY=0.5;exitDx=0;exitDy=0;entryX=0;entryY=0.5;entryDx=0;entryDy=0;" parent="1" source="kvpyFoiQvOs-y7EJ9BPA-107" target="kvpyFoiQvOs-y7EJ9BPA-36" edge="1">
          <mxGeometry relative="1" as="geometry" />
        </mxCell>
        <mxCell id="kvpyFoiQvOs-y7EJ9BPA-107" value="user can book&amp;nbsp;" style="rhombus;whiteSpace=wrap;html=1;rounded=0;" parent="1" vertex="1">
          <mxGeometry x="370" y="350" width="80" height="80" as="geometry" />
        </mxCell>
        <mxCell id="zZxQNKmGpHDd5fXuxG7Y-1" value="&lt;font style=&quot;font-size: 20px;&quot;&gt;ER Diagram&lt;/font&gt;" style="text;html=1;align=center;verticalAlign=middle;resizable=0;points=[];autosize=1;strokeColor=none;fillColor=none;" parent="1" vertex="1">
          <mxGeometry x="345" y="5" width="130" height="40" as="geometry" />
        </mxCell>
        <mxCell id="zZxQNKmGpHDd5fXuxG7Y-2" value="1" style="text;html=1;align=center;verticalAlign=middle;resizable=0;points=[];autosize=1;strokeColor=none;fillColor=none;" parent="1" vertex="1">
          <mxGeometry x="270" y="425" width="30" height="30" as="geometry" />
        </mxCell>
        <mxCell id="zZxQNKmGpHDd5fXuxG7Y-3" value="m" style="text;html=1;align=center;verticalAlign=middle;resizable=0;points=[];autosize=1;strokeColor=none;fillColor=none;" parent="1" vertex="1">
          <mxGeometry x="605" y="418" width="30" height="30" as="geometry" />
        </mxCell>
        <mxCell id="zZxQNKmGpHDd5fXuxG7Y-5" value="1" style="text;html=1;align=center;verticalAlign=middle;resizable=0;points=[];autosize=1;strokeColor=none;fillColor=none;" parent="1" vertex="1">
          <mxGeometry x="563.5" y="160" width="30" height="30" as="geometry" />
        </mxCell>
        <mxCell id="zZxQNKmGpHDd5fXuxG7Y-6" value="1" style="text;html=1;align=center;verticalAlign=middle;resizable=0;points=[];autosize=1;strokeColor=none;fillColor=none;" parent="1" vertex="1">
          <mxGeometry x="285" y="188" width="30" height="30" as="geometry" />
        </mxCell>
        <mxCell id="zZxQNKmGpHDd5fXuxG7Y-7" value="1" style="text;html=1;align=center;verticalAlign=middle;resizable=0;points=[];autosize=1;strokeColor=none;fillColor=none;" parent="1" vertex="1">
          <mxGeometry x="265" y="328" width="30" height="30" as="geometry" />
        </mxCell>
      </root>
    </mxGraphModel>
  </diagram>
</mxfile>
